<svg id="Layer_1" data-name="Layer 1" xmlns="http://www.w3.org/2000/svg" viewBox="0 0 64 64"><defs><style>.cls-1{fill:#fff;}</style></defs><path class="cls-1" d="M57.51,36.29l-1.42-1c3-.89,3.24-2.67,3.24-3.24a2.1,2.1,0,0,0-1.58-2.1,1.6,1.6,0,0,0-1.35.41,1.56,1.56,0,0,0-.79-.71,2.09,2.09,0,0,0-2.44.95c-.28.46-1,2,.77,4.12a18.39,18.39,0,0,1-2.33.62c-2,.33-2.25.17-2.15-1.89,0-.41.15-.88-.34-1.13a1,1,0,0,0-1.28.35c-.51.54-1,1.11-1.67,1.87-.75-2.22-1.35-2.36-2.92-.86-.87.83-1.66,1.75-2.64,2.79-.14-1,.39-1.49.6-2.07.4-1.09,1.23-2.27.46-3.31s-2.18-.54-3.3-.3c-3.55.75-7,1.88-10.45,2.93-.65.19-1.34.68-2,.4-2.68-1.14-5.48-2.1-7.75-4a1.4,1.4,0,0,1-.1-2.33A13.92,13.92,0,0,1,20,26a44,44,0,0,1,16.5-6.94c1.25-.24,2.51-.44,3.75,1-.71-1.69-1.22-2-3.38-1.75C30.06,19,24,21.77,18.44,25.51c-3.93,2.62-3.81,4.69.29,7,1.56.87,3.21,1.58,5,2.44C20,36.42,16.51,37.79,13,39.25a37.8,37.8,0,0,0-7.54,3.8c-1.22.88-1.08,1.57.34,2.1a9.6,9.6,0,0,0,2.81.55A42.75,42.75,0,0,0,21,44.5a32,32,0,0,0,9.6-3.38c2.58-1.55,2.55-3.2,0-4.78a13.39,13.39,0,0,1-2.93-1.71,90.14,90.14,0,0,1,10.52-2.79c.57-.09,1.26-.43,1.68.05s0,1.2-.29,1.74c-.57,1.26-1.22,2.49-1.81,3.74-.28.58-.67,1.27-.07,1.76s1.3.09,1.79-.49,1.11-1.29,1.69-1.92a10,10,0,0,1,2.54-2.34c-.12.43-.16.63-.22.81-.21.66-.6,1.41.3,1.8s1.38-.14,1.74-.92a3.52,3.52,0,0,1,1.49-1.59c.55,1.85,1.21,2.3,3,2.1.59-.06,4-.81,4.29-.89l.42-.11.07.08c.18.17,1,.73,2,1.51l.92.67a.49.49,0,0,0,.33.11.51.51,0,0,0,.42-.21.53.53,0,0,0-.09-.75C58.34,36.89,58,36.62,57.51,36.29ZM30.25,38.74c.2.53-.06.8-.4,1.09a8.61,8.61,0,0,1-2.31,1.39A53.21,53.21,0,0,1,10,45l-3.66-.37c-.32,0-.69-.08-.77-.44s.28-.54.54-.7c.58-.37,1.18-.72,1.79-1A153.52,153.52,0,0,1,24.14,35.8C25.56,35.3,29.7,37.34,30.25,38.74Zm23.84-7.6a1,1,0,0,1,1.13-.53c.3.12.41.56.29,1.19a.54.54,0,0,0,1.06.22.52.52,0,0,0,.11-.19c.23-.59.56-.91.88-.86A1.07,1.07,0,0,1,58.25,32c0,1.07-1.17,1.94-3.14,2.36C54,33.14,53.57,32,54.09,31.14Z"/></svg>